<?xml version="1.0" encoding="utf-8"?>
<!-- Generator: Adobe Illustrator 16.0.0, SVG Export Plug-In . SVG Version: 6.00 Build 0)  -->
<!DOCTYPE svg PUBLIC "-//W3C//DTD SVG 1.1//EN" "http://www.w3.org/Graphics/SVG/1.1/DTD/svg11.dtd">
<svg version="1.1" id="Layer_1" xmlns="http://www.w3.org/2000/svg" xmlns:xlink="http://www.w3.org/1999/xlink" x="0px" y="0px"
	 width="4000px" height="2000px" viewBox="0 0 4000 2000" enable-background="new 0 0 4000 2000" xml:space="preserve">
<g>
	<g>
		<path fill="#FFFFFF" d="M3446.256,1116.396c38.799-111.831,0-216.815,0-216.815l-127.807-33.092
			c0.392,1.416,0.759,2.823,1.136,4.233c-5.056-15.811-10.998-31.225-17.798-46.168l71.355-117.458
			c-51.642-106.511-153.311-153.311-153.311-153.311l-113.772,66.972c1.365,0.774,2.704,1.558,4.053,2.339
			c-14.682-7.591-29.866-14.338-45.486-20.201l-32.6-133.519c-111.83-38.798-216.814,0-216.814,0l-33.093,127.806
			c1.417-0.392,2.823-0.759,4.234-1.135c-15.811,5.056-31.226,10.999-46.168,17.799l-117.458-71.357
			c-106.512,51.642-153.312,153.311-153.312,153.311l66.973,113.773c0.773-1.365,1.559-2.705,2.338-4.052
			c-7.59,14.681-14.337,29.867-20.2,45.486l-133.52,32.6c-38.799,111.831,0,216.814,0,216.814l127.807,33.093
			c-0.392-1.416-0.759-2.823-1.136-4.234c5.057,15.812,10.998,31.226,17.799,46.169l-71.357,117.458
			c51.643,106.511,153.312,153.312,153.312,153.312l113.772-66.973c-1.365-0.773-2.704-1.559-4.052-2.339
			c14.681,7.591,29.866,14.338,45.485,20.201l32.6,133.52c111.83,38.798,216.814,0,216.814,0l33.093-127.807
			c-1.417,0.392-2.823,0.759-4.234,1.135c15.812-5.056,31.226-10.998,46.169-17.799l117.457,71.357
			c106.512-51.642,153.312-153.311,153.312-153.311l-66.973-113.772c-0.773,1.365-1.558,2.705-2.339,4.053
			c7.591-14.682,14.338-29.867,20.201-45.486L3446.256,1116.396z M2915.632,1198.625c-109.698,0-198.626-88.928-198.626-198.625
			c0-109.698,88.928-198.625,198.626-198.625c109.697,0,198.625,88.928,198.625,198.625
			C3114.257,1109.697,3025.329,1198.625,2915.632,1198.625z"/>
	</g>
</g>
</svg>
