<?xml version="1.0" encoding="utf-8"?>
<!-- Generator: Adobe Illustrator 16.0.0, SVG Export Plug-In . SVG Version: 6.00 Build 0)  -->
<!DOCTYPE svg PUBLIC "-//W3C//DTD SVG 1.1//EN" "http://www.w3.org/Graphics/SVG/1.1/DTD/svg11.dtd">
<svg version="1.1" id="Ebene_1" xmlns="http://www.w3.org/2000/svg" xmlns:xlink="http://www.w3.org/1999/xlink" x="0px" y="0px"
	 width="100px" height="100px" viewBox="0 0 100 100" enable-background="new 0 0 100 100" xml:space="preserve">
<path d="M77.926,18.781h-34.85c-0.001,0-0.003,0-0.005,0H8.217C6.441,18.78,5,20.22,5,21.997v34.851c0,0.002,0,0.003,0,0.005v34.854
	c0,1.554,1.103,2.852,2.569,3.151c0.079,0.017,0.164,0.015,0.244,0.024c0.134,0.018,0.266,0.041,0.404,0.041h0h69.709
	c1.743,0,3.155-1.387,3.207-3.118c0.001-0.033,0.01-0.064,0.01-0.099v-0.001V56.852V21.998
	C81.143,20.22,79.703,18.779,77.926,18.781z M74.709,88.488H11.435V25.214h31.631c0.001,0,0.003,0,0.005,0h31.638v31.637V88.488z"/>
<path d="M48.523,57.864l15.376-15.376c1.802-1.801,1.802-4.722,0-6.523c-1.801-1.802-4.722-1.802-6.522,0L42,51.341L26.623,35.964
	c-1.802-1.801-4.722-1.801-6.523,0c-1.802,1.801-1.802,4.722,0,6.523l15.376,15.376L20.1,73.241c-1.802,1.802-1.802,4.722,0,6.523
	c1.801,1.801,4.722,1.801,6.523,0L42,64.388l15.377,15.377c1.801,1.801,4.722,1.801,6.522,0c1.802-1.802,1.802-4.723,0-6.523
	L48.523,57.864z"/>
</svg>
